<svg width="159" height="96" viewBox="0 0 159 96" fill="none" xmlns="http://www.w3.org/2000/svg">
<path d="M0.857422 48.1934C0.857422 40.0553 2.74544 33.5286 6.52148 28.6133C10.2975 23.6654 15.3594 21.1914 21.707 21.1914C27.306 21.1914 31.8307 23.1445 35.2812 27.0508V0H47.1465V75H36.4043L35.8184 69.5312C32.2702 73.8281 27.5339 75.9766 21.6094 75.9766C15.4245 75.9766 10.4115 73.4863 6.57031 68.5059C2.76172 63.5254 0.857422 56.7546 0.857422 48.1934ZM12.7227 49.2188C12.7227 54.5898 13.748 58.7891 15.7988 61.8164C17.8822 64.8112 20.8281 66.3086 24.6367 66.3086C29.487 66.3086 33.0352 64.1439 35.2812 59.8145V37.2559C33.1003 33.0241 29.5846 30.9082 24.7344 30.9082C20.8932 30.9082 17.931 32.4382 15.8477 35.498C13.7643 38.5254 12.7227 43.099 12.7227 49.2188ZM81.2285 66.5039C84.1908 66.5039 86.6484 65.6413 88.6016 63.916C90.5547 62.1908 91.5964 60.0586 91.7266 57.5195H102.908C102.778 60.8073 101.753 63.8835 99.832 66.748C97.9115 69.5801 95.3073 71.8262 92.0195 73.4863C88.7318 75.1465 85.1836 75.9766 81.375 75.9766C73.9857 75.9766 68.1263 73.584 63.7969 68.7988C59.4674 64.0137 57.3027 57.4056 57.3027 48.9746V47.7539C57.3027 39.7135 59.4512 33.2845 63.748 28.4668C68.0449 23.6165 73.9043 21.1914 81.3262 21.1914C87.6087 21.1914 92.7194 23.0306 96.6582 26.709C100.63 30.3548 102.713 35.1562 102.908 41.1133H91.7266C91.5964 38.0859 90.5547 35.5957 88.6016 33.6426C86.681 31.6895 84.2233 30.7129 81.2285 30.7129C77.3874 30.7129 74.4251 32.1126 72.3418 34.9121C70.2585 37.679 69.2005 41.8945 69.168 47.5586V49.4629C69.168 55.1921 70.1934 59.4727 72.2441 62.3047C74.3275 65.1042 77.3223 66.5039 81.2285 66.5039ZM158.133 49.1211C158.133 57.2917 156.277 63.8184 152.566 68.7012C148.855 73.5514 143.875 75.9766 137.625 75.9766C131.831 75.9766 127.192 74.0723 123.709 70.2637V95.3125H111.844V22.168H122.781L123.27 27.5391C126.753 23.3073 131.489 21.1914 137.479 21.1914C143.924 21.1914 148.969 23.6003 152.615 28.418C156.294 33.2031 158.133 39.86 158.133 48.3887V49.1211ZM146.316 48.0957C146.316 42.8223 145.258 38.6393 143.143 35.5469C141.059 32.4544 138.064 30.9082 134.158 30.9082C129.308 30.9082 125.825 32.9102 123.709 36.9141V60.3516C125.857 64.4531 129.373 66.5039 134.256 66.5039C138.032 66.5039 140.978 64.9902 143.094 61.9629C145.242 58.903 146.316 54.2806 146.316 48.0957Z" fill="black"/>
</svg>
